HIERARCHY
ROOT hip
{
	OFFSET 0.000000 0.000000 0.000000 
	CHANNELS 6 Xposition Yposition Zposition Xrotation Zrotation Yrotation
	JOINT abdomen
	{
		OFFSET 0.000000 3.402643 0.000000 
		CHANNELS 3 Xrotation Zrotation Yrotation
		JOINT chest
		{
			OFFSET 0.000000 8.438565 -0.680529 
			CHANNELS 3 Xrotation Zrotation Yrotation
			JOINT neck
			{
				OFFSET 0.000000 10.207942 -0.272212 
				CHANNELS 3 Xrotation Zrotation Yrotation
				JOINT head
				{
					OFFSET 0.000000 3.130431 0.000000 
					CHANNELS 3 Xrotation Zrotation Yrotation
					End Site
					{
						OFFSET 0.000000 3.130435 0.000000 
					}
				}
			}
			JOINT lCollar
			{
				OFFSET 3.470700 6.669187 -0.816635 
				CHANNELS 3 Yrotation Zrotation Xrotation
				JOINT lShldr
				{
					OFFSET 3.198488 0.000000 0.000000 
					CHANNELS 3 Zrotation Yrotation Xrotation
					JOINT lForeArm
					{
						OFFSET 10.139888 0.000000 0.000000 
						CHANNELS 3 Yrotation Zrotation Xrotation
						JOINT lHand
						{
							OFFSET 8.370511 0.000000 0.000000 
							CHANNELS 3 Zrotation Yrotation Xrotation
							End Site
							{
								OFFSET 4.083176 0.000000 0.000000 
							}
						}
					}
				}
			}
			JOINT rCollar
			{
				OFFSET -3.470700 6.669187 -0.816635 
				CHANNELS 3 Yrotation Zrotation Xrotation
				JOINT rShldr
				{
					OFFSET -3.198488 0.000000 0.000000 
					CHANNELS 3 Zrotation Yrotation Xrotation
					JOINT rForeArm
					{
						OFFSET -10.139888 0.000000 0.000000 
						CHANNELS 3 Yrotation Zrotation Xrotation
						JOINT rHand
						{
							OFFSET -8.370511 0.000000 0.000000 
							CHANNELS 3 Zrotation Yrotation Xrotation
							End Site
							{
								OFFSET -4.083176 0.000000 0.000000 
							}
						}
					}
				}
			}
		}
	}
	JOINT lThigh
	{
		OFFSET 5.308129 -1.633274 1.361059 
		CHANNELS 3 Xrotation Zrotation Yrotation
		JOINT lShin
		{
			OFFSET -2.041588 -20.007561 0.000000 
			CHANNELS 3 Xrotation Zrotation Yrotation
			JOINT lFoot
			{
				OFFSET 0.000000 -19.190928 -1.224953 
				CHANNELS 3 Xrotation Yrotation Zrotation
				End Site
				{
					OFFSET 0.000000 -2.449906 4.627600 
				}
			}
		}
	}
	JOINT rThigh
	{
		OFFSET -5.308129 -1.633274 1.361059 
		CHANNELS 3 Xrotation Zrotation Yrotation
		JOINT rShin
		{
			OFFSET 2.041588 -20.007561 0.000000 
			CHANNELS 3 Xrotation Zrotation Yrotation
			JOINT rFoot
			{
				OFFSET 0.000000 -19.190928 -1.224953 
				CHANNELS 3 Xrotation Yrotation Zrotation
				End Site
				{
					OFFSET 0.000000 -2.449906 4.627600 
				}
			}
		}
	}
}
MOTION
Frames: 18
Frame Time: 0.016667
0.011635 52.984577 -0.792435 -6.456454 3.155480 4.225244 27.198059 -5.065048 -0.258345 -1.239199 -1.708751 1.318521 -5.181100 -8.140600 0.441108 0.452054 -11.073775 65.657349 -6.192365 -8.154594 -0.431579 -55.027672 5.861531 -7.086143 -21.134207 -5.000000 45.000000 -23.480122 20.657337 34.225456 9.805770 2.156198 -0.119163 79.275284 -21.129271 -35.095955 24.950438 5.000000 36.205311 20.689184 -20.774439 13.025254 16.849699 2.371723 -9.446304 -2.918195 -5.380313 0.080995 -7.838258 9.472360 1.274856 13.814649 -9.107754 7.025228 5.442863 3.696329 0.520853 -11.121965 -13.885114 2.588939 
0.018942 52.987156 -0.803067 -6.459682 3.126342 4.205740 27.207962 -4.937028 -0.238770 -1.218481 -1.689236 1.269708 -5.150718 -8.180678 0.437390 0.512161 -11.088151 65.577370 -6.173133 -8.193606 -0.433594 -54.958843 5.856369 -7.076796 -21.314322 -5.000000 45.000000 -23.575850 20.649393 34.190895 9.796024 2.165952 -0.119668 79.241783 -21.113388 -35.092850 25.003607 5.000000 36.160210 21.103819 -20.910934 12.948315 16.847414 2.371025 -9.347171 -2.906742 -5.386873 0.070703 -7.846800 9.434206 1.279644 13.738357 -9.099689 7.047240 5.563474 3.727892 0.510560 -11.202901 -13.844321 2.619877 
0.029285 52.988186 -0.815378 -6.463768 3.107056 4.156983 27.218266 -4.835887 -0.228896 -1.198352 -1.669712 1.250183 -5.121347 -8.171023 0.435930 0.527337 -11.118366 65.494186 -6.173133 -8.193606 -0.433594 -54.928360 5.832789 -7.069099 -21.490334 -5.000000 45.000000 -23.634848 20.587675 34.185211 9.756984 2.175711 -0.120175 79.207275 -21.076466 -35.080505 25.017048 5.000000 36.165329 21.398615 -21.044722 12.872857 16.827168 2.361044 -9.239120 -2.885879 -5.365189 0.058355 -7.807336 9.358575 1.273409 13.661161 -9.089897 7.109110 5.658880 3.724982 0.527101 -11.241979 -13.831533 2.654341 
0.041628 52.988186 -0.828808 -6.457881 3.097545 4.097945 27.229473 -4.739590 -0.230554 -1.168463 -1.650188 1.250190 -5.101594 -8.142056 0.431549 0.494098 -11.156919 65.423592 -6.182824 -8.183853 -0.433090 -54.917358 5.806802 -7.063406 -21.662218 -5.000000 45.000000 -23.647303 20.502415 34.205090 9.698411 2.185473 -0.120682 79.172966 -21.029955 -35.073601 24.999220 5.000000 36.213673 21.602671 -21.177145 12.798084 16.846769 2.351427 -9.123449 -2.906154 -5.366124 0.040524 -7.767724 9.288136 1.291067 13.593647 -9.101399 7.177034 5.739587 3.708735 0.522357 -11.247976 -13.874992 2.665804 
0.052855 52.988186 -0.844254 -6.449538 3.107437 4.058941 27.230528 -4.665104 -0.231276 -1.138707 -1.620894 1.250193 -5.111140 -8.113090 0.427168 0.479355 -11.183006 65.336601 -6.200739 -8.155647 -0.420583 -54.904949 5.769601 -7.041790 -21.827091 -5.000000 45.000000 -23.656612 20.439507 34.201542 9.649196 2.177366 -0.110557 79.154175 -20.979916 -35.058887 24.988512 5.000000 36.241955 21.817268 -21.311451 12.718964 16.820395 2.303194 -9.023170 -2.866737 -5.377658 -0.001338 -7.781263 9.344372 1.371230 13.539206 -9.114976 7.183702 5.780682 3.679446 0.553436 -11.266135 -13.851932 2.696798 
0.059613 52.988186 -0.867776 -6.388021 3.156181 4.049193 27.243465 -4.634740 -0.285227 -1.127689 -1.611147 1.220913 -5.201632 -8.090866 0.443368 0.554541 -11.146694 65.192795 -6.201832 -8.115583 -0.429563 -54.907936 5.688383 -6.978981 -21.959259 -5.000000 45.000000 -23.629560 20.458750 34.205158 9.610038 2.128603 -0.108030 79.195747 -20.940401 -35.065247 25.001926 5.000000 36.243412 22.066595 -21.492601 12.640223 16.729681 2.243678 -9.010168 -2.868014 -5.399097 -0.000427 -7.933210 9.305559 1.367459 13.466941 -9.198388 7.138805 5.747748 3.677411 0.531787 -11.207047 -13.730059 2.699600 
0.066371 52.988186 -0.891295 -6.325283 3.214628 4.049740 27.246410 -4.604591 -0.339440 -1.116817 -1.591630 1.191628 -5.301875 -8.068642 0.459570 0.618654 -11.109934 65.057800 -6.200086 -8.067876 -0.416061 -54.901260 5.600368 -6.920830 -22.094568 -5.000000 45.000000 -23.597466 20.484926 34.203793 9.570901 2.089592 -0.106009 79.237312 -20.900890 -35.071568 25.023840 5.000000 36.245144 22.326622 -21.675545 12.552921 16.641237 2.165502 -8.991282 -2.835846 -5.393957 -0.003115 -8.136970 9.321442 1.425342 13.384075 -9.262521 7.068859 5.748306 3.657871 0.540918 -11.171358 -13.645354 2.703533 
0.075284 52.988186 -0.912836 -6.339157 3.195337 4.000440 27.303598 -4.526651 -0.296753 -1.096198 -1.572112 1.152578 -5.361519 -8.028561 0.464658 0.632622 -11.090672 64.975121 -6.199870 -8.038619 -0.414554 -54.853546 5.516146 -6.824750 -22.217825 -5.000000 45.000000 -23.646763 20.471855 34.163189 9.541956 2.087974 -0.115633 79.210602 -20.896677 -35.058838 25.048853 5.000000 36.176750 22.514359 -21.767971 12.563596 16.623116 2.165756 -8.970442 -2.835849 -5.393954 -0.003115 -8.160835 9.288846 1.411580 13.372492 -9.261079 7.088713 5.720519 3.648954 0.489828 -11.099372 -13.587828 2.717940 
0.084732 52.988186 -0.933881 -6.373875 3.156557 3.951686 27.370012 -4.443231 -0.241714 -1.085365 -1.552594 1.093996 -5.411308 -7.978827 0.466916 0.627464 -11.079866 64.905037 -6.199799 -8.028867 -0.414052 -54.805962 5.423803 -6.733483 -22.336597 -5.000000 45.000000 -23.721655 20.458818 34.108994 9.522486 2.117235 -0.117149 79.156998 -20.897806 -35.024586 25.085894 5.000000 36.100441 22.692743 -21.832394 12.612379 16.626696 2.166621 -8.921204 -2.828366 -5.398239 -0.013546 -8.108786 9.345162 1.433721 13.382685 -9.242362 7.121887 5.681087 3.621064 0.456961 -11.047219 -13.537967 2.726561 
0.095167 52.989220 -0.956004 -6.366931 3.146962 3.912681 27.408739 -4.388522 -0.219815 -1.074814 -1.533071 1.054941 -5.461248 -7.948402 0.472097 0.588158 -11.048596 64.838203 -6.201021 -8.008307 -0.422661 -54.768196 5.330199 -6.643275 -22.454426 -5.000000 45.000000 -23.788473 20.472916 34.068398 9.483464 2.136747 -0.118161 79.104980 -20.891212 -35.005219 25.093019 5.000000 36.080387 22.829271 -21.914438 12.597883 16.600464 2.147998 -8.903849 -2.820052 -5.391186 -0.004931 -8.138144 9.383805 1.486512 13.364906 -9.253088 7.110448 5.624039 3.601863 0.442543 -10.969072 -13.489374 2.748932 
0.107079 52.991798 -0.979735 -6.306335 3.176190 3.912685 27.402462 -4.335644 -0.273199 -1.055026 -1.513541 1.035410 -5.482045 -7.937288 0.480201 0.513111 -10.988472 64.770958 -6.220406 -7.988799 -0.421656 -54.731178 5.234153 -6.566781 -22.543398 -5.000000 45.000000 -23.864853 20.541464 34.030983 9.434676 2.156260 -0.119173 79.026436 -20.870756 -34.971657 25.055990 5.000000 36.160339 22.903799 -22.008821 12.484866 16.516081 2.107617 -8.906705 -2.848330 -5.396945 0.036864 -8.178210 9.300633 1.451171 13.320698 -9.306083 7.090634 5.544383 3.600070 0.417544 -10.897852 -13.444324 2.802812 
0.118992 52.994381 -1.003467 -6.246407 3.195676 3.912688 27.386168 -4.304237 -0.324123 -1.044876 -1.503780 0.996095 -5.502757 -7.916521 0.486844 0.446903 -10.923879 64.701981 -6.228666 -7.970354 -0.411037 -54.703957 5.144888 -6.485640 -22.640001 -5.000000 45.000000 -23.932972 20.620850 34.000202 9.385524 2.177366 -0.110557 78.956245 -20.854233 -34.939774 25.018917 5.000000 36.240318 22.982327 -22.099165 12.363308 16.451746 2.059523 -8.912864 -2.846945 -5.396556 0.066144 -8.251131 9.227531 1.455049 13.269074 -9.352708 7.063867 5.478815 3.593325 0.413228 -10.840385 -13.454924 2.834688 
0.128452 52.996960 -1.024510 -6.249679 3.195898 3.854186 27.432545 -4.243332 -0.270345 -1.043949 -1.533091 0.947279 -5.513279 -7.847474 0.486189 0.381858 -10.912778 64.642662 -6.228241 -7.911839 -0.408021 -54.664513 5.034097 -6.371929 -22.644699 -5.000000 45.000000 -23.860147 20.564754 34.029282 9.376186 2.205032 -0.121701 78.922180 -20.867023 -34.927784 24.976896 5.000000 36.311832 22.932512 -22.195173 12.347771 16.427969 2.029494 -8.877706 -2.838901 -5.377963 0.084023 -8.263041 9.217229 1.452501 13.256907 -9.388991 7.076915 5.419427 3.611283 0.438328 -10.715853 -13.364357 2.905238 
0.137902 52.999535 -1.045553 -6.253055 3.186336 3.804889 27.469416 -4.191362 -0.219855 -1.042705 -1.562404 0.898468 -5.523707 -7.768772 0.484076 0.307790 -10.905749 64.587044 -6.217982 -7.843572 -0.404503 -54.625198 4.915215 -6.264013 -22.661797 -5.000000 45.000000 -23.792675 20.518021 34.066662 9.366464 2.224540 -0.122712 78.896469 -20.883797 -34.917347 24.939753 5.000000 36.391861 22.874043 -22.293728 12.323123 16.417645 1.990080 -8.805872 -2.845926 -5.375007 0.065229 -8.285158 9.203463 1.469085 13.236838 -9.418429 7.101549 5.355652 3.618761 0.434432 -10.627178 -13.338126 2.917258 
0.147415 53.002113 -1.065052 -6.246648 3.176770 3.756135 27.499161 -4.157565 -0.226985 -1.023066 -1.552639 0.878938 -5.554070 -7.738347 0.489265 0.293840 -10.866228 64.538185 -6.217842 -7.824067 -0.403497 -54.567741 4.809608 -6.170492 -22.683590 -5.000000 45.000000 -23.799084 20.495855 34.008003 9.356343 2.235881 -0.113590 78.856926 -20.896467 -34.926220 24.873558 5.000000 36.486618 22.822489 -22.283297 12.341644 16.392698 1.981336 -8.756893 -2.845932 -5.375005 0.065229 -8.264499 9.178432 1.434262 13.221543 -9.442267 7.098251 5.319359 3.620474 0.422025 -10.548911 -13.302341 2.932866 
0.156960 53.004696 -1.083518 -6.247732 3.176841 3.736634 27.511879 -4.114501 -0.281717 -0.993852 -1.513573 0.878936 -5.584764 -7.746543 0.500293 0.304058 -10.811006 64.505402 -6.208007 -7.814314 -0.402995 -54.492622 4.706992 -6.111531 -22.705387 -5.000000 45.000000 -23.852095 20.499063 33.892159 9.346558 2.226129 -0.113084 78.827408 -20.905504 -34.948048 24.788120 5.000000 36.616795 22.771673 -22.202120 12.379227 16.376081 1.972292 -8.728193 -2.837803 -5.368248 0.064094 -8.245042 9.168407 1.395660 13.208254 -9.447641 7.056968 5.290682 3.610136 0.429454 -10.501222 -13.241976 2.924708 
0.166538 53.006756 -1.101470 -6.251161 3.157491 3.697090 27.523064 -4.064011 -0.301729 -0.964979 -1.484269 0.888695 -5.623826 -7.746543 0.500292 0.326501 -10.763456 64.465607 -6.198241 -7.814314 -0.402995 -54.416943 4.606508 -6.038419 -22.727180 -5.000000 45.000000 -23.894825 20.497665 33.801506 9.317616 2.214795 -0.122208 78.786659 -20.906708 -34.949387 24.714725 5.000000 36.735435 22.727215 -22.139851 12.400150 16.349977 1.961000 -8.698838 -2.829303 -5.351013 0.052758 -8.248962 9.193578 1.396375 13.189616 -9.459095 7.045331 5.249976 3.600434 0.426458 -10.441571 -13.195651 2.921413 
0.176202 53.006756 -1.117360 -6.247822 3.099189 3.648331 27.532656 -3.987822 -0.281140 -0.935199 -1.464743 0.878936 -5.683733 -7.745084 0.511177 0.346301 -10.753716 64.440445 -6.198241 -7.814314 -0.402995 -54.329235 4.492068 -5.927442 -22.721117 -5.000000 45.000000 -23.915493 20.504572 33.786301 9.259042 2.224558 -0.122715 78.725868 -20.915199 -34.924831 24.676214 5.000000 36.798889 22.695019 -22.128588 12.385271 16.331116 1.970686 -8.675973 -2.820340 -5.332903 0.070673 -8.228727 9.248537 1.420373 13.161412 -9.411106 7.064158 5.243879 3.593120 0.396340 -10.405979 -13.166298 2.908049 
